# xmcd
#
# Track frame offsets: 
#        150
#        28586
#        58853
#        96145
#        131368
#        158144
#        182619
#        218065
#        249328
#        279729
#        312509
#
# Disc length: 4501 seconds
#
# Revision: 0
# Processed by: cddbd v1.5.2PL0 Copyright (c) Steve Scherf et al.
# Submitted via: ExactAudioCopy v0.99pb4
#
DISCID=9711930b
DTITLE=Various Artist - Deep House Vol.2  (STREET007-2)
DYEAR=2009
DGENRE=House
TTITLE0=Terry Lee Brown Jr. Feat. Robert Manos - Wait 
TTITLE1=Stryke - Someday Soon 
TTITLE2=The Timewriter - Here Comes The Sun 
TTITLE3=Lexicon - Mo' Tomatoes 
TTITLE4=Sunkiss - Trickle 
TTITLE5=ADNY presents Leiva - Afrobeat 
TTITLE6=Adam Jace - Deepfusion 
TTITLE7=Nick Curly - Deep Breath 
TTITLE8=Denace 2 Society - Blue Bubbles 
TTITLE9=Andrew Grant - Molly 
TTITLE10=J Axel - Love Letters 
EXTD=
EXTT0=
EXTT1=
EXTT2=
EXTT3=
EXTT4=
EXTT5=
EXTT6=
EXTT7=
EXTT8=
EXTT9=
EXTT10=
PLAYORDER=
